<svg width="31" height="23" viewBox="0 0 31 23" fill="none" xmlns="http://www.w3.org/2000/svg">
<path d="M30.0938 2.66226C28.9861 3.11466 27.7963 3.4191 26.5475 3.55642C27.8229 2.85387 28.8009 1.74149 29.2616 0.415147C28.0695 1.06554 26.7477 1.53817 25.3403 1.79365C24.2141 0.689782 22.61 0 20.8345 0C17.4248 0 14.6609 2.54304 14.6609 5.67793C14.6609 6.12288 14.7164 6.55718 14.8206 6.97126C9.68982 6.73495 5.14121 4.474 2.09491 1.03787C1.56482 1.87667 1.26042 2.85174 1.26042 3.89386C1.26042 5.86314 2.34954 7.60144 4.00579 8.61908C2.99422 8.58927 2.04167 8.3338 1.20949 7.90907C1.20949 7.93355 1.20949 7.95591 1.20949 7.98039C1.20949 10.7321 3.33681 13.0271 6.16204 13.5476C5.64468 13.6775 5.09838 13.7467 4.53473 13.7467C4.13773 13.7467 3.75 13.7105 3.37385 13.6455C4.15973 15.9012 6.43982 17.5437 9.14121 17.5894C7.02894 19.1127 4.3669 20.0207 1.47338 20.0207C0.975695 20.0207 0.483797 19.9941 0 19.9409C2.73264 21.5514 5.97686 22.4914 9.46413 22.4914C20.8206 22.4914 27.029 13.8393 27.029 6.33577C27.029 6.08988 27.0232 5.84505 27.0116 5.60128C28.2188 4.79973 29.2662 3.80019 30.0938 2.66226Z" fill="black"/>
</svg>
