<svg width="32" height="23" viewBox="0 0 32 23" fill="none" xmlns="http://www.w3.org/2000/svg">
<path d="M27.461 2.47531C24.7012 0.374218 20.3373 0.0182833 20.1529 0.00318305C19.8614 -0.0205459 19.5847 0.13585 19.4652 0.38824C19.4606 0.396868 19.217 1.06667 18.9813 1.71275C22.1885 2.24449 24.3676 3.42447 24.4838 3.48918C25.028 3.78903 25.2101 4.45021 24.8925 4.96469C24.6819 5.30768 24.3005 5.49967 23.9088 5.49967C23.7141 5.49967 23.5183 5.45329 23.3384 5.35406C23.3065 5.33573 20.1096 3.61214 15.9415 3.61214C11.7722 3.61214 8.57416 5.33681 8.54228 5.35406C7.99921 5.65283 7.30243 5.47702 6.98707 4.96146C6.6717 4.44805 6.855 3.78903 7.39693 3.48918C7.51306 3.42447 9.70015 2.24018 12.9165 1.70951C12.6683 1.05589 12.4178 0.396868 12.4132 0.38824C12.2937 0.134771 12.017 -0.0248603 11.7256 0.00318305C11.5411 0.0172047 7.1772 0.373139 4.38101 2.50335C2.91915 3.78256 0 11.2615 0 17.7276C0 17.842 0.03074 17.9531 0.0910812 18.0523C2.10739 21.4067 7.60414 22.2847 8.85651 22.3224C8.86448 22.3235 8.87131 22.3235 8.87814 22.3235C9.09901 22.3235 9.30736 22.2232 9.43829 22.0539L10.7931 20.3152C7.8216 19.6367 6.25045 18.57 6.15595 18.5042C5.65045 18.1515 5.54115 17.4763 5.91345 16.9964C6.2846 16.5185 6.99504 16.4128 7.50054 16.7634C7.54266 16.7893 10.4425 18.7124 15.9392 18.7124C21.4576 18.7124 24.3494 16.7817 24.3779 16.7623C24.8834 16.415 25.5961 16.5196 25.9661 17.0007C26.335 17.4796 26.228 18.1504 25.7247 18.5021C25.6302 18.5679 24.0671 19.6324 21.1024 20.3109L22.4401 22.0528C22.5711 22.2232 22.7794 22.3224 23.0003 22.3224C23.0082 22.3224 23.0151 22.3224 23.0219 22.3214C24.2754 22.2836 29.7722 21.4056 31.7873 18.0512C31.8477 17.952 31.8784 17.8409 31.8784 17.7266C31.8784 11.2615 28.9593 3.78256 27.461 2.47531ZM11.3851 15.4766C10.1271 15.4766 9.10812 14.2697 9.10812 12.7802C9.10812 11.2906 10.1271 10.0837 11.3851 10.0837C12.6432 10.0837 13.6622 11.2906 13.6622 12.7802C13.6622 14.2697 12.6432 15.4766 11.3851 15.4766ZM20.4933 15.4766C19.2352 15.4766 18.2162 14.2697 18.2162 12.7802C18.2162 11.2906 19.2352 10.0837 20.4933 10.0837C21.7513 10.0837 22.7703 11.2906 22.7703 12.7802C22.7703 14.2697 21.7513 15.4766 20.4933 15.4766Z" fill="black"/>
</svg>
