<svg width="141" height="131" viewBox="0 0 141 131" fill="none" xmlns="http://www.w3.org/2000/svg">
<g filter="url(#filter0_d_410_2)">
<path d="M89 74L71 56L53 74" stroke="black" stroke-width="4" stroke-linecap="round" stroke-linejoin="round"/>
<path d="M61.4121 34.6943C64.1452 25.7964 76.8548 25.7964 79.5879 34.6943C81.4646 40.8037 87.7683 44.4874 94.0116 43.0334L96.0783 42.5521C104.592 40.5694 110.29 51.0787 103.983 57.1312C99.2257 61.6964 99.2257 69.3036 103.983 73.8688C110.29 79.9213 104.592 90.4306 96.0782 88.4479L94.0116 87.9666C87.7683 86.5126 81.4646 90.1963 79.5879 96.3057C76.8548 105.204 64.1452 105.204 61.4121 96.3057C59.5354 90.1963 53.2317 86.5126 46.9884 87.9666L44.9217 88.4479C36.4083 90.4306 30.7105 79.9213 37.0173 73.8688C41.7743 69.3036 41.7743 61.6964 37.0173 57.1312C30.7105 51.0787 36.4083 40.5694 44.9218 42.5521L46.9884 43.0334C53.2317 44.4874 59.5354 40.8037 61.4121 34.6943Z" stroke="black" stroke-width="3"/>
</g>
<defs>
<filter id="filter0_d_410_2" x="-4" y="0" width="149" height="139" filterUnits="userSpaceOnUse" color-interpolation-filters="sRGB">
<feFlood flood-opacity="0" result="BackgroundImageFix"/>
<feColorMatrix in="SourceAlpha" type="matrix" values="0 0 0 0 0 0 0 0 0 0 0 0 0 0 0 0 0 0 127 0" result="hardAlpha"/>
<feOffset dy="4"/>
<feGaussianBlur stdDeviation="2"/>
<feComposite in2="hardAlpha" operator="out"/>
<feColorMatrix type="matrix" values="0 0 0 0 0 0 0 0 0 0 0 0 0 0 0 0 0 0 0.25 0"/>
<feBlend mode="normal" in2="BackgroundImageFix" result="effect1_dropShadow_410_2"/>
<feBlend mode="normal" in="SourceGraphic" in2="effect1_dropShadow_410_2" result="shape"/>
</filter>
</defs>
</svg>
